<?xml version="1.0" ?><svg id="Eye" style="enable-background:new 0 0 32 32;" version="1.1" viewBox="0 0 32 32" xml:space="preserve" xmlns="http://www.w3.org/2000/svg" xmlns:xlink="http://www.w3.org/1999/xlink"><style type="text/css">
	.st0{fill:#E4EDF2;}
	.st1{fill:#C77C58;}
	.st2{fill:#3B3E3F;}
</style><g><path class="st0" d="M29.605,14.702C26.578,10.192,21.491,7.5,16,7.5S5.423,10.192,2.395,14.702c-0.528,0.786-0.528,1.801,0,2.586   c2.92,4.349,7.756,7.001,13.022,7.184c-4.496-0.283-8.068-3.959-8.068-8.449c0-4.674,3.868-8.477,8.622-8.477   s8.623,3.803,8.623,8.477c0,4.52-3.621,8.215-8.16,8.454c5.324-0.138,10.224-2.798,13.173-7.189   C30.133,16.502,30.133,15.487,29.605,14.702z"/><path class="st1" d="M24.594,16.023c0-4.674-3.868-8.477-8.623-8.477s-8.622,3.803-8.622,8.477c0,4.49,3.572,8.166,8.068,8.449   c0.336,0.03,0.679,0.035,1.016,0.005C20.972,24.239,24.594,20.544,24.594,16.023z M12.479,16.023c0-1.9,1.567-3.445,3.493-3.445   c1.926,0,3.493,1.545,3.493,3.445c0,1.899-1.566,3.445-3.493,3.445C14.045,19.469,12.479,17.923,12.479,16.023z"/><ellipse class="st2" cx="15.971" cy="16.023" rx="3.493" ry="3.445"/></g></svg>